<svg width="38" height="38" viewBox="0 0 38 38" fill="none" xmlns="http://www.w3.org/2000/svg">
    <path fill-rule="evenodd" clip-rule="evenodd" d="M12 11.5C11.7239 11.5 11.5 11.7239 11.5 12V26C11.5 26.2761 11.7239 26.5 12 26.5H26C26.2761 26.5 26.5 26.2761 26.5 26V12C26.5 11.7239 26.2761 11.5 26 11.5H12ZM9.5 12C9.5 10.6193 10.6193 9.5 12 9.5H26C27.3807 9.5 28.5 10.6193 28.5 12V26C28.5 27.3807 27.3807 28.5 26 28.5H12C10.6193 28.5 9.5 27.3807 9.5 26V12Z" fill="currentColor"/>
    <path fill-rule="evenodd" clip-rule="evenodd" d="M19 5.5C19.5523 5.5 20 5.94772 20 6.5V31.5C20 32.0523 19.5523 32.5 19 32.5C18.4477 32.5 18 32.0523 18 31.5V6.5C18 5.94772 18.4477 5.5 19 5.5Z" fill="currentColor"/>
    <path fill-rule="evenodd" clip-rule="evenodd" d="M5.5 19C5.5 18.4477 5.94772 18 6.5 18H31.5C32.0523 18 32.5 18.4477 32.5 19C32.5 19.5523 32.0523 20 31.5 20H6.5C5.94772 20 5.5 19.5523 5.5 19Z" fill="currentColor"/>
    <path d="M15 7.25C15 6.55964 15.5596 6 16.25 6H21.75C22.4404 6 23 6.55964 23 7.25C23 7.94036 22.4404 8.5 21.75 8.5H16.25C15.5596 8.5 15 7.94036 15 7.25Z" fill="currentColor"/>
    <path d="M15 30.75C15 30.0596 15.5596 29.5 16.25 29.5H21.75C22.4404 29.5 23 30.0596 23 30.75C23 31.4404 22.4404 32 21.75 32H16.25C15.5596 32 15 31.4404 15 30.75Z" fill="currentColor"/>
    <path d="M6 16.25C6 15.5596 6.55964 15 7.25 15C7.94036 15 8.5 15.5596 8.5 16.25V21.75C8.5 22.4404 7.94036 23 7.25 23C6.55964 23 6 22.4404 6 21.75V16.25Z" fill="currentColor"/>
    <path d="M29.5 16.25C29.5 15.5596 30.0596 15 30.75 15C31.4404 15 32 15.5596 32 16.25V21.75C32 22.4404 31.4404 23 30.75 23C30.0596 23 29.5 22.4404 29.5 21.75V16.25Z" fill="currentColor"/>
</svg>
